<svg xmlns="http://www.w3.org/2000/svg" viewBox="0 0 958.09 201.31"><path d="M100.52,55.69a33.34,33.34,0,0,0-28.78,50.14l18.17,33.42.5.92v0a11.8,11.8,0,0,0,16.2,4,12,12,0,0,0,4-4v0l.49-.92,18.16-33.42a33.32,33.32,0,0,0-28.72-50.14Zm.07,13.54A19.83,19.83,0,1,1,80.77,89.07h0a19.83,19.83,0,0,1,19.82-19.83Z" style="fill:#c1cad9"/><circle cx="100.52" cy="100.79" r="82.02" style="fill:none;stroke:#c1cad9;stroke-miterlimit:10;stroke-width:37px"/><circle cx="479.04" cy="100.52" r="82.02" style="fill:none;stroke:#c1cad9;stroke-miterlimit:10;stroke-width:37px"/><path d="M478.73,64.21c-20.94,0-37.91,7.21-37.91,16.11V92a2.07,2.07,0,0,0,0,.5h0c1,8.51,17.58,15.29,37.86,15.29s36.84-6.78,37.85-15.29h0c0-.17,0-.33,0-.5V80.32C516.63,71.42,499.66,64.21,478.73,64.21ZM479,68c16,0,29,5.52,29,12.32a5.42,5.42,0,0,1-.26,1.65,6.78,6.78,0,0,1-.33.85,10.27,10.27,0,0,1-3.08,3.5c-.23.17-.46.35-.71.52-5.13,3.48-14.22,5.8-24.61,5.8s-19.49-2.32-24.6-5.8c-.25-.17-.49-.34-.71-.52a9.69,9.69,0,0,1-3.18-3.75,5.29,5.29,0,0,1-.31-.87,5.8,5.8,0,0,1-.18-1.38C450.06,73.54,463,68,479,68Z" style="fill:#c1cad9;stroke:#c1cad9;stroke-miterlimit:10"/><path d="M478.73,112c-17.74,0-32.77-4.71-37.91-11.2v5.63a7.54,7.54,0,0,0,.06.82h0c1,8.51,17.57,15.28,37.85,15.28s36.84-6.77,37.85-15.28h0a7.52,7.52,0,0,0,0-.82v-5.63C511.5,107.28,496.47,112,478.73,112Z" style="fill:#c1cad9;stroke:#c1cad9;stroke-miterlimit:10"/><path d="M479.36,126.29c-17.75,0-32.77-4.71-37.9-11.2v5.63a5.64,5.64,0,0,0,.05.82h0c1,8.51,17.57,15.31,37.85,15.31s36.84-6.77,37.85-15.28h0a4.63,4.63,0,0,0,0-.83v-5.62C512.13,121.58,497.11,126.29,479.36,126.29Z" style="fill:#c1cad9;stroke:#c1cad9;stroke-miterlimit:10"/><circle cx="857.57" cy="100.79" r="82.02" transform="translate(179.9 635.91) rotate(-45)" style="fill:none;stroke:#c1cad9;stroke-miterlimit:10;stroke-width:37px"/><path d="M887.9,63.23H827.24A7.24,7.24,0,0,0,820,70.47v60.65a7.23,7.23,0,0,0,7.23,7.23H887.9a7.23,7.23,0,0,0,7.23-7.23V70.47A7.24,7.24,0,0,0,887.9,63.23Zm-4.2,56.47a7.22,7.22,0,0,1-7.22,7.23H838.67a7.23,7.23,0,0,1-7.24-7.23V81.89a7.24,7.24,0,0,1,7.24-7.23h37.81a7.23,7.23,0,0,1,7.22,7.23Z" style="fill:#c1cad9;stroke:#c1cad9;stroke-miterlimit:10"/><rect x="848.51" y="114.25" width="17.81" height="3.87" rx="1.32" style="fill:#c1cad9;stroke:#c1cad9;stroke-miterlimit:10"/><rect x="848.51" y="120.05" width="6.39" height="3.87" rx="1.32" style="fill:#c1cad9;stroke:#c1cad9;stroke-miterlimit:10"/><rect x="848.71" y="108.64" width="17.81" height="3.87" rx="1.32" style="fill:#c1cad9;stroke:#c1cad9;stroke-miterlimit:10"/><rect x="857.53" y="119.97" width="9.1" height="3.87" rx="1.32" style="fill:#c1cad9;stroke:#c1cad9;stroke-miterlimit:10"/><rect x="181.96" y="87.07" width="215.35" height="27.13" style="fill:#c1cad9;stroke:#c1cad9;stroke-miterlimit:10"/><rect x="559.25" y="87.23" width="215.35" height="27.13" style="fill:#c1cad9;stroke:#c1cad9;stroke-miterlimit:10"/><rect x="561.34" y="87.07" width="64.58" height="27.13" style="fill:#c1cad9;stroke:#c1cad9;stroke-miterlimit:10"/></svg>