<?xml version="1.0" encoding="UTF-8" standalone="no"?><!-- Generator: Gravit.io --><svg xmlns="http://www.w3.org/2000/svg" xmlns:xlink="http://www.w3.org/1999/xlink" style="isolation:isolate" viewBox="14.761 13.627 70.477 72.746" width="70.477pt" height="72.746pt"><g><path d="M 30.891 42.37 L 69.109 42.37 C 72.36 42.37 75 45.01 75 48.261 L 75 70.479 C 75 73.73 72.36 76.37 69.109 76.37 L 30.891 76.37 C 27.64 76.37 25 73.73 25 70.479 L 25 48.261 C 25 45.01 27.64 42.37 30.891 42.37 Z" style="stroke:none;fill:#243040;stroke-miterlimit:10;"/><path d=" M 49.146 56.373 L 50.854 56.373 C 52.314 56.373 53.5 57.559 53.5 59.019 L 53.5 73.727 C 53.5 75.188 52.314 76.373 50.854 76.373 L 49.146 76.373 C 47.686 76.373 46.5 75.188 46.5 73.727 L 46.5 59.019 C 46.5 57.559 47.686 56.373 49.146 56.373 L 49.146 56.373 L 49.146 56.373 Z  M 59.146 56.373 L 60.854 56.373 C 62.314 56.373 63.5 57.559 63.5 59.019 L 63.5 73.727 C 63.5 75.188 62.314 76.373 60.854 76.373 L 59.146 76.373 C 57.686 76.373 56.5 75.188 56.5 73.727 L 56.5 59.019 C 56.5 57.559 57.686 56.373 59.146 56.373 L 59.146 56.373 Z  M 19.929 46.373 L 80.071 46.373 C 83.383 46.373 85.668 49.031 85.171 52.305 L 80.9 80.441 C 80.403 83.715 77.311 86.373 74 86.373 L 26 86.373 C 22.689 86.373 19.597 83.715 19.1 80.441 L 14.829 52.305 C 14.332 49.031 16.617 46.373 19.929 46.373 L 19.929 46.373 L 19.929 46.373 Z  M 39.146 56.373 L 40.854 56.373 C 42.314 56.373 43.5 57.559 43.5 59.019 L 43.5 73.727 C 43.5 75.188 42.314 76.373 40.854 76.373 L 39.146 76.373 C 37.686 76.373 36.5 75.188 36.5 73.727 L 36.5 59.019 C 36.5 57.559 37.686 56.373 39.146 56.373 Z " fill-rule="evenodd" fill="rgb(193,203,217)"/><g><path d="M 45.827 13.966 L 45.827 13.966 C 47.5 14.931 47.719 17.69 46.315 20.121 L 27.138 53.329 C 25.734 55.76 23.236 56.95 21.563 55.984 L 21.563 55.984 C 19.89 55.019 19.671 52.26 21.075 49.829 L 40.252 16.621 C 41.656 14.19 44.154 13 45.827 13.966 Z" style="stroke:none;fill:#C1CBD9;stroke-miterlimit:10;"/><path d="M 54.323 13.966 L 54.323 13.966 C 52.65 14.931 52.431 17.69 53.835 20.121 L 73.012 53.329 C 74.416 55.76 76.914 56.95 78.587 55.984 L 78.587 55.984 C 80.26 55.019 80.479 52.26 79.075 49.829 L 59.898 16.621 C 58.494 14.19 55.996 13 54.323 13.966 Z" style="stroke:none;fill:#C1CBD9;stroke-miterlimit:10;"/></g></g></svg>