<?xml version="1.0" encoding="UTF-8" standalone="no"?><!-- Generator: Gravit.io --><svg xmlns="http://www.w3.org/2000/svg" xmlns:xlink="http://www.w3.org/1999/xlink" style="isolation:isolate" viewBox="90.021 142.483 319.957 215.034" width="319.957pt" height="215.034pt"><path d=" M 112.188 279 C 116.506 286.301 121.453 293.327 127.026 300 L 182 300 C 186.415 300 190 303.585 190 308 L 190 312 C 190 316.415 186.415 320 182 320 L 146.947 320 L 146.947 320 C 197.051 362.216 266.768 368.69 322.857 340 L 322.857 340 L 268 340 C 263.585 340 260 336.415 260 332 L 260 328 C 260 323.585 263.585 320 268 320 L 352.938 320 C 357.116 316.478 361.155 312.709 365.033 308.693 C 366.834 306.828 368.582 304.929 370.274 303 L 370.274 303 L 246.319 303 C 241.176 303 237 298.824 237 293.681 L 237 292.319 C 237 287.176 241.176 283 246.319 283 L 385.238 283 C 401.797 256.821 409.992 226.919 409.876 197.066 L 409.876 197.066 C 409.956 196.298 409.989 195.528 409.976 194.754 C 409.446 164.404 337.333 141.014 249.04 142.555 C 160.747 144.096 89.495 169.989 90.024 200.339 C 90.024 200.342 90.024 200.344 90.025 200.347 C 90.36 220.341 94.422 240.269 102.189 259 L 152.291 259 C 156.546 259 160 262.454 160 266.709 L 160 271.291 C 160 275.546 156.546 279 152.291 279 L 112.188 279 Z  M 109.977 197.475 C 109.64 178.161 172.089 161.385 249.345 160.037 C 326.602 158.688 389.598 173.274 389.935 192.588 C 390.272 211.902 327.823 228.678 250.567 230.026 C 173.311 231.375 110.315 216.789 109.977 197.475 L 109.977 197.475 L 109.977 197.475 L 109.977 197.475 L 109.977 197.475 Z " fill-rule="evenodd" fill="rgb(235,235,235)"/></svg>