<?xml version="1.0" encoding="UTF-8" standalone="no"?><!-- Generator: Gravit.io --><svg xmlns="http://www.w3.org/2000/svg" xmlns:xlink="http://www.w3.org/1999/xlink" style="isolation:isolate" viewBox="112.689 112.689 274.621 274.621" width="274.621pt" height="274.621pt"><g><circle vector-effect="non-scaling-stroke" cx="249.99999999999994" cy="249.99999999999997" r="137.31053015056585" fill="rgb(191,150,75)"/><path d=" M 249.428 353.153 L 208.656 333.518 L 167.885 313.884 L 157.815 269.766 L 147.746 225.648 L 175.96 190.268 L 204.175 154.888 L 249.428 154.888 L 294.68 154.888 L 322.895 190.268 L 351.109 225.648 L 341.04 269.766 L 330.97 313.884 L 290.199 333.518 L 249.428 353.153 Z  M 250.836 303.282 L 250.836 303.282 L 250.836 303.282 Q 242.268 303.282 234.584 300.97 L 234.584 300.97 L 234.584 300.97 Q 226.9 298.658 221.188 294.17 L 221.188 294.17 L 221.188 294.17 Q 215.476 289.682 212.892 283.426 L 212.892 283.426 L 212.892 283.426 Q 211.668 280.57 212.96 278.19 L 212.96 278.19 L 212.96 278.19 Q 214.252 275.81 217.516 275.13 L 217.516 275.13 L 217.516 275.13 Q 219.828 274.586 222.004 275.878 L 222.004 275.878 L 222.004 275.878 Q 224.18 277.17 225.268 279.618 L 225.268 279.618 L 225.268 279.618 Q 227.58 284.65 234.72 287.778 L 234.72 287.778 L 234.72 287.778 Q 241.86 290.906 250.836 290.906 L 250.836 290.906 L 250.836 290.906 Q 256.548 290.906 261.512 288.866 L 261.512 288.866 L 261.512 288.866 Q 266.476 286.826 269.604 282.95 L 269.604 282.95 L 269.604 282.95 Q 272.732 279.074 272.732 273.498 L 272.732 273.498 L 272.732 273.498 Q 272.732 266.426 267.496 260.918 L 267.496 260.918 L 267.496 260.918 Q 262.26 255.41 250.292 254.05 L 250.292 254.05 L 250.292 254.05 Q 239.956 252.962 232.272 248.95 L 232.272 248.95 L 232.272 248.95 Q 224.588 244.938 220.44 238.614 L 220.44 238.614 L 220.44 238.614 Q 216.292 232.29 216.292 224.266 L 216.292 224.266 L 216.292 224.266 Q 216.292 215.562 221.12 209.374 L 221.12 209.374 L 221.12 209.374 Q 225.948 203.186 234.04 199.854 L 234.04 199.854 L 234.04 199.854 Q 242.132 196.522 251.924 196.522 L 251.924 196.522 L 251.924 196.522 Q 260.22 196.522 266.272 198.766 L 266.272 198.766 L 266.272 198.766 Q 272.324 201.01 276.676 205.09 L 276.676 205.09 L 276.676 205.09 Q 281.028 209.17 284.156 214.61 L 284.156 214.61 L 284.156 214.61 Q 285.924 217.602 285.652 220.118 L 285.652 220.118 L 285.652 220.118 Q 285.38 222.634 283.068 224.13 L 283.068 224.13 L 283.068 224.13 Q 280.756 225.762 278.036 224.878 L 278.036 224.878 L 278.036 224.878 Q 275.316 223.994 273.82 221.41 L 273.82 221.41 L 273.82 221.41 Q 270.828 215.698 265.66 212.23 L 265.66 212.23 L 265.66 212.23 Q 260.492 208.762 251.652 208.626 L 251.652 208.626 L 251.652 208.626 Q 242.268 208.49 236.012 212.502 L 236.012 212.502 L 236.012 212.502 Q 229.756 216.514 229.756 224.402 L 229.756 224.402 L 229.756 224.402 Q 229.756 228.482 231.592 232.222 L 231.592 232.222 L 231.592 232.222 Q 233.428 235.962 238.596 238.818 L 238.596 238.818 L 238.596 238.818 Q 243.764 241.674 253.556 242.762 L 253.556 242.762 L 253.556 242.762 Q 268.516 244.258 277.424 252.078 L 277.424 252.078 L 277.424 252.078 Q 286.332 259.898 286.332 273.09 L 286.332 273.09 L 286.332 273.09 Q 286.332 280.57 283.34 286.282 L 283.34 286.282 L 283.34 286.282 Q 280.348 291.994 275.248 295.734 L 275.248 295.734 L 275.248 295.734 Q 270.148 299.474 263.824 301.378 L 263.824 301.378 L 263.824 301.378 Q 257.5 303.282 250.836 303.282 L 250.836 303.282 L 250.836 303.282 Z  M 251.652 315.794 L 251.652 315.794 L 251.652 315.794 Q 249.884 315.794 248.66 314.57 L 248.66 314.57 L 248.66 314.57 Q 247.436 313.346 247.436 311.578 L 247.436 311.578 L 247.436 190.13 L 247.436 190.13 Q 247.436 188.226 248.66 187.07 L 248.66 187.07 L 248.66 187.07 Q 249.884 185.914 251.652 185.914 L 251.652 185.914 L 251.652 185.914 Q 253.556 185.914 254.712 187.07 L 254.712 187.07 L 254.712 187.07 Q 255.868 188.226 255.868 190.13 L 255.868 190.13 L 255.868 311.578 L 255.868 311.578 Q 255.868 313.346 254.712 314.57 L 254.712 314.57 L 254.712 314.57 Q 253.556 315.794 251.652 315.794 L 251.652 315.794 L 251.652 315.794 Z " fill-rule="evenodd" fill="rgb(174,139,73)"/></g></svg>