<svg xmlns="http://www.w3.org/2000/svg" viewBox="0 0 1104.9 325"><defs><style>.cls-1,.cls-3{fill:#c1cad9;}.cls-2{fill:none;stroke-width:37px;}.cls-2,.cls-3{stroke:#c1cad9;stroke-miterlimit:10;}</style></defs><g id="Layer_2" data-name="Layer 2"><g id="Layer_1-2" data-name="Layer 1"><path class="cls-1" d="M162.3,83.35a58.45,58.45,0,0,0-50.45,87.91l31.85,58.59.87,1.61,0,.07a20.68,20.68,0,0,0,35.38,0l0-.07.87-1.61,31.84-58.59A58.43,58.43,0,0,0,162.3,83.35Zm.13,23.75a34.76,34.76,0,1,1-34.75,34.76A34.75,34.75,0,0,1,162.43,107.1Z"/><circle class="cls-2" cx="162.3" cy="162.43" r="143.8"/><circle class="cls-2" cx="552.44" cy="162.3" r="143.8"/><path class="cls-3" d="M551.89,98.64c-36.71,0-66.46,12.65-66.46,28.25v19.93a5.15,5.15,0,0,0,0,.56c0,.3,0,.6.07.88h0c1.77,14.92,30.81,26.8,66.37,26.8s64.59-11.88,66.36-26.8h0a8.25,8.25,0,0,0,.07-.88,5.15,5.15,0,0,0,0-.56V126.89C618.34,111.29,588.59,98.64,551.89,98.64Zm.55,6.65c28.07,0,50.82,9.67,50.82,21.6a9.49,9.49,0,0,1-.46,2.89,10.79,10.79,0,0,1-.58,1.48,18,18,0,0,1-5.4,6.15c-.4.3-.81.6-1.24.9-9,6.11-24.94,10.17-43.14,10.17s-34.17-4.06-43.14-10.17c-.43-.29-.85-.59-1.25-.9a17.1,17.1,0,0,1-5.57-6.58,10.7,10.7,0,0,1-.54-1.53,9.77,9.77,0,0,1-.31-2.41C501.63,115,524.38,105.29,552.44,105.29Z"/><path class="cls-3" d="M551.89,182.41c-31.11,0-57.46-8.25-66.46-19.63v9.86a13.57,13.57,0,0,0,.09,1.44h0c1.77,14.92,30.81,26.8,66.37,26.8s64.59-11.88,66.36-26.8h0a11.36,11.36,0,0,0,.09-1.44v-9.86C609.35,174.16,583,182.41,551.89,182.41Z"/><path class="cls-3" d="M553,207.48c-31.12,0-57.46-8.25-66.46-19.63v9.86a11.36,11.36,0,0,0,.09,1.44h0C488.4,214.08,517.44,226,553,226s64.59-11.88,66.36-26.8h0a11.36,11.36,0,0,0,.09-1.44v-9.86C610.45,199.23,584.11,207.48,553,207.48Z"/><circle class="cls-2" cx="942.6" cy="162.7" r="143.8"/><path class="cls-3" d="M995.77,96.85H889.43a12.68,12.68,0,0,0-12.68,12.68V215.87a12.68,12.68,0,0,0,12.68,12.68H995.77a12.68,12.68,0,0,0,12.68-12.68V109.53A12.68,12.68,0,0,0,995.77,96.85Zm-7.35,99a12.67,12.67,0,0,1-12.67,12.68H909.46a12.68,12.68,0,0,1-12.68-12.68V129.56a12.68,12.68,0,0,1,12.68-12.68h66.29a12.68,12.68,0,0,1,12.67,12.68Z"/><rect class="cls-3" x="926.72" y="186.29" width="31.23" height="6.79" rx="2.32"/><rect class="cls-3" x="926.72" y="196.47" width="11.2" height="6.79" rx="2.32"/><rect class="cls-3" x="927.06" y="176.45" width="31.23" height="6.79" rx="2.32"/><rect class="cls-3" x="942.53" y="196.33" width="15.95" height="6.79" rx="2.32"/><rect class="cls-3" x="295.91" y="138.72" width="113.23" height="47.56"/><rect class="cls-3" x="696.73" y="138.72" width="113.23" height="47.56"/></g></g></svg>