<?xml version="1.0" encoding="UTF-8" standalone="no"?><!-- Generator: Gravit.io --><svg xmlns="http://www.w3.org/2000/svg" xmlns:xlink="http://www.w3.org/1999/xlink" style="isolation:isolate" viewBox="13.929 13.929 72.142 72.142" width="72.142pt" height="72.142pt"><path d=" M 69.544 59.544 C 72.326 54.994 73.929 49.647 73.929 43.929 C 73.929 27.372 60.486 13.929 43.929 13.929 C 27.372 13.929 13.929 27.372 13.929 43.929 L 13.929 43.929 C 13.929 60.486 27.372 73.929 43.929 73.929 C 49.647 73.929 54.994 72.326 59.544 69.544 L 74.052 84.052 C 76.744 86.744 81.114 86.744 83.805 84.052 L 84.052 83.805 C 86.744 81.114 86.744 76.744 84.052 74.052 L 69.544 59.544 Z  M 28.929 43.929 C 28.929 35.65 35.65 28.929 43.929 28.929 C 52.208 28.929 58.929 35.65 58.929 43.929 C 58.929 52.208 52.208 58.929 43.929 58.929 C 35.65 58.929 28.929 52.208 28.929 43.929 L 28.929 43.929 Z " fill-rule="evenodd" fill="rgb(193,203,217)"/></svg>