<?xml version="1.0" encoding="UTF-8" standalone="no"?><!-- Generator: Gravit.io --><svg xmlns="http://www.w3.org/2000/svg" xmlns:xlink="http://www.w3.org/1999/xlink" style="isolation:isolate" viewBox="165 163.959 156.5 172.082" width="156.5pt" height="172.082pt"><g><rect x="178.5" y="264.041" width="31" height="72" transform="matrix(1,0,0,1,0,0)" fill="rgb(33,44,55)"/><rect x="290.5" y="212.041" width="31" height="124" transform="matrix(1,0,0,1,0,0)" fill="rgb(33,44,55)"/><rect x="234.5" y="242.041" width="31" height="94" transform="matrix(1,0,0,1,0,0)" fill="rgb(33,44,55)"/><path d=" M 178.5 232.041 Q 250.556 225.951 296.5 181.041" fill="none" vector-effect="non-scaling-stroke" stroke-width="9" stroke="rgb(191,150,75)" stroke-linejoin="miter" stroke-linecap="round" stroke-miterlimit="3"/><path d=" M 303.169 187.424 L 297.143 181.398 L 291.117 175.372 C 288.385 172.64 289.197 169.61 292.929 168.61 L 301.161 166.405 L 309.392 164.199 C 313.124 163.199 315.342 165.417 314.342 169.149 L 312.137 177.38 L 309.931 185.612 C 308.931 189.344 305.901 190.156 303.169 187.424 Z " fill="rgb(174,139,73)"/></g></svg>