<?xml version="1.0" encoding="UTF-8" standalone="no"?><!-- Generator: Gravit.io --><svg xmlns="http://www.w3.org/2000/svg" xmlns:xlink="http://www.w3.org/1999/xlink" style="isolation:isolate" viewBox="95 128.291 335 255.52" width="335pt" height="255.52pt"><g><path d=" M 167.013 380 C 136.224 359.83 130.11 284.617 130.11 250 C 130.11 206.492 121.879 147.839 167.013 130 C 184.859 122.947 244.262 140 265.423 140 C 308.072 140 400.529 134.903 425.338 160 C 443.971 178.849 400.736 223.96 400.736 250 C 400.736 278.874 398.551 320.367 376.133 340 C 351.415 361.648 304.586 360 265.423 360 C 233.324 360 190.222 395.204 167.013 380 Z " fill="rgb(23,31,41)"/><path d=" M 316.721 191.698 C 317.456 193.66 317.857 195.783 317.857 198 L 317.857 292 C 317.857 301.934 309.792 310 299.857 310 L 113 310 C 103.066 310 95 301.934 95 292 L 95 198 C 95 195.476 95.521 193.072 96.46 190.891 L 201.57 296.001 C 201.584 296.015 201.598 296.028 201.612 296.04 C 201.62 296.051 201.63 296.06 201.639 296.07 L 201.639 296.07 C 201.697 296.128 201.756 296.184 201.818 296.235 C 201.934 296.35 202.056 296.455 202.175 296.566 C 202.215 296.59 202.253 296.621 202.291 296.649 C 205.232 299.051 209.133 299.286 211.352 297.067 L 211.352 297.067 C 211.592 296.828 211.803 296.568 211.969 296.284 C 212.342 296.029 212.693 295.726 213.027 295.392 L 316.721 191.698 Z  M 305.943 181.057 C 304.042 180.373 301.993 180 299.857 180 L 113 180 C 110.094 180 107.347 180.69 104.916 181.916 L 205 282 L 305.943 181.057 Z " fill-rule="evenodd" fill="#263243"/></g></svg>